<svg width="800" height="600" xmlns="http://www.w3.org/2000/svg">
 <g>
  <title>Layer 1</title>
  <path d="m178,183c0,-2 0.12144,-3.49345 -3,-4c-0.98709,-0.16019 -5.87605,-2.34315 -11,-4c-3.92311,-1.26855 -8.87856,-1.49345 -12,-2c-0.98709,-0.16019 -3,0 -6,0c-4,0 -11.0966,-0.46626 -17,1c-6.13806,1.52455 -11.88856,5.19409 -17,8c-3.9203,2.15204 -7.03857,4.11638 -12,11c-1.30745,1.814 -3,7 -3,9c0,4 -0.49269,7.02434 0,12c0.50245,5.0742 2.91873,9.34508 5,14c2.04085,4.56453 8,10 9,11c6,6 11.45807,9.66446 15,12c4.49576,2.96448 8.66995,3.09479 13,7c3.71298,3.34869 7.76952,6.39099 10,10c3.32501,5.37997 6.9034,13.01691 8,19c0.91925,5.01547 1,10 1,14c0,4 0.28069,10.56509 -2,14c-2.76573,4.16541 -7.16119,7.7464 -12,11c-4.14925,2.78995 -12.29419,7.34821 -19,10c-5.65654,2.23688 -13,2 -21,2c-6,0 -12,0 -17,0c-4,0 -8,0 -10,0c-4,0 -6,0 -6,-1l0,-1" id="svg_1" stroke="#000" fill="none"/>
  <path d="m240,262c0,-1 -0.69344,-2.4588 -2,-3c-2.77164,-1.14804 -4,0 -7,0c-4,0 -6.0451,-0.15158 -13,2c-6.04204,1.86917 -8.71863,6.14914 -12,12c-4.6147,8.22827 -8.49873,16.94672 -9,24c-0.42534,5.98489 0.03552,13.50424 3,18c2.33554,3.54193 5.87856,6.49347 9,7c2.96126,0.48056 8,0 12,0c5,0 9,-1 12,-4c3,-3 4.49873,-6.94672 5,-14c0.70889,-9.97485 0,-16 0,-20c0,-5 0,-7 0,-10c0,-3 0,-4 0,-6c0,-1 0.49345,-1.87857 1,-5c0.16019,-0.98709 0.4588,-1.69345 1,-3c0.38269,-0.92389 -0.4595,1.0535 0,3c0.51375,2.17624 2,4 3,9c1,5 1.61073,9.05182 3,18c0.78229,5.03867 1.85124,10.13376 3,15c1.02748,4.35251 2.69255,7.186 4,9c0.8269,1.14728 1,2 1,3l1,1l0,1l1,0" id="svg_2" stroke="#000" fill="none"/>
  <path d="m368,175c0,-2 0,-3 0,-6c0,-2 -1.54916,-3.95517 -5,-5c-4.78546,-1.44891 -11.17429,-1.66074 -19,0c-9.63431,2.04454 -19.56018,8.32297 -28,24c-2.99802,5.56883 -7.49924,24.95847 -8,34c-0.8295,14.97705 2,30 5,44c3,14 5.49963,26.97119 6,40c0.57565,14.98895 0,23 0,29l0,1l-1,-3l-2,-3" id="svg_3" stroke="#000" fill="none"/>
  <path d="m295,271c2,0 12.88309,-2.6098 27,-5c15.89825,-2.6918 33,-6 44,-7l9,0l1,0" id="svg_4" stroke="#000" fill="none"/>
  <path d="m395,300c1,-1 5.94583,-4.14859 14,-7c11.92392,-4.22144 23.40683,-8.18817 30,-12c4.32864,-2.50259 6.49756,-6.92578 7,-12c0.29562,-2.98541 0.61313,-9.9176 -2,-11c-0.92389,-0.38269 -5.15536,-1.56894 -13,0c-12.74756,2.5495 -23.47025,11.31076 -34,19c-6.30753,4.60599 -11.94504,9.29498 -14,18c-0.91901,3.89301 -1.78336,9.5914 1,15c2.58847,5.02988 11.7587,7.97125 22,10c9.85831,1.95288 21.02521,1.11865 26,0c4.02264,-0.90457 5,-1 6,-1l0,-1" id="svg_5" stroke="#000" fill="none"/>
  <path d="m183,360c1,1 2.52705,2.76425 5,9c3.84879,9.70499 7.49539,25.82355 9,45c1.8773,23.92645 0,38 0,51c0,9 0,16 0,25c0,3 -1,7 -2,8l0,1l0,1l0,1" id="svg_6" stroke="#000" fill="none"/>
  <path d="m201,442c1,0 2,0 7,0c9,0 20,0 38,-2c9,-1 12,-3 15,-5l2,-2l0,-2" id="svg_7" stroke="#000" fill="none"/>
  <path d="m261,360c0,1 -0.08121,7.01276 2,20c2.88745,18.0184 6.8439,41.03967 12,61c3.88269,15.03079 5,26 7,35l1,2" id="svg_8" stroke="#000" fill="none"/>
  <path d="m342,437c0,-1 -0.02899,-2.41611 -3,-2c-7.20975,1.00977 -12.34546,5.80835 -15,11c-3.4671,6.78079 -5.73871,11.25745 -4,17c1.04483,3.45084 3.69345,5.4588 5,6c2.77164,1.14804 11.25058,1.10837 18,-1c6.40308,-2.00018 8.98691,-7.75711 10,-14c0.96109,-5.92252 -0.99023,-16.79025 -2,-24c-0.1387,-0.99033 0,1 0,4c0,12 5,29 7,35l2,4" id="svg_9" stroke="#000" fill="none"/>
  <path stroke="#000" d="m378,427c0.97368,-1 2.30783,-1.15558 5.84211,8c7.60394,19.69803 13.8769,34.88049 16.55263,41c6.44403,14.7377 9.29041,19.8353 12.65789,17c8.58541,-7.22858 16.17686,-23.29938 25.31579,-35c5.61711,-7.19162 9.73684,-13 11.68421,-15l1.94737,-1" id="svg_10" fill="none"/>
  <path d="m481,460c-1,0 -0.30655,0.4588 1,1c3.69553,1.53073 11.09665,1.38702 21,0c7.20975,-1.00977 14.22272,-4.724 18,-8c2.13672,-1.85318 5,-6 5,-8c0,-4 0.08246,-9.05664 -2,-12c-2.88788,-4.0817 -6,-6 -10,-6c-5,0 -12.68469,-0.87317 -18,4c-4.71973,4.32715 -8.85861,10.69147 -11,18c-1.71033,5.83737 -1,11 -1,16c0,6 3.74673,12.37134 8,15c7.60846,4.70227 15,5 22,5c6,0 9,-2 11,-3l1,0" id="svg_11" stroke="#000" fill="none"/>
  <path d="m556,446c1,0 1,3 1,9c0,9 -2,16 0,16c1,0 0,-3 0,-7c0,-9 1.76215,-19.47955 5,-26c2.22375,-4.47827 7.01019,-5.75256 10,-6c6.06201,-0.50171 14.50665,-1.97946 21,2c6.65918,4.08109 11.81635,13.07129 15,21c2.83777,7.06732 4,12 4,17l0,2" id="svg_12" stroke="#000" fill="none"/>
  <path d="m687,433c1,0 2,0 4,0l1,-1l1,0" id="svg_13" stroke="#000" fill="none"/>
  <polyline stroke-linecap="round" id="svg_14" points="681,300 679,300 " stroke="#000" fill="none"/>
 </g>

</svg>